HIERARCHY
ROOT joint_Root
{
	OFFSET 0.0 0.0 0.0
	CHANNELS 6 Xposition Yposition Zposition Zrotation Xrotation Yrotation 
	JOINT Hips
	{
		OFFSET 4.5925 91.4895 -427.239
		CHANNELS 6 Xposition Yposition Zposition Zrotation Xrotation Yrotation 
		JOINT Spine
		{
			OFFSET 15.7357 0.0 0.0
			CHANNELS 6 Xposition Yposition Zposition Zrotation Xrotation Yrotation 
			JOINT Chest
			{
				OFFSET 8.98455 -0.406207 0.0
				CHANNELS 6 Xposition Yposition Zposition Zrotation Xrotation Yrotation 
				JOINT Neck
				{
					OFFSET 16.3773 0.0 0.0
					CHANNELS 6 Xposition Yposition Zposition Zrotation Xrotation Yrotation 
					JOINT Head
					{
						OFFSET 6.45672 0.0 0.0
						CHANNELS 6 Xposition Yposition Zposition Zrotation Xrotation Yrotation 
						End Site
						{
							OFFSET 0.0 0.0 0.0
						}
					}
				}
				JOINT Shoulder_L
				{
					OFFSET 12.9942 -0.242716 4.98039
					CHANNELS 6 Xposition Yposition Zposition Zrotation Xrotation Yrotation 
					JOINT UpperArm_L
					{
						OFFSET 5.34809 0.0 0.0
						CHANNELS 6 Xposition Yposition Zposition Zrotation Xrotation Yrotation 
						JOINT LowerArm_L
						{
							OFFSET 24.3286 1.87007e-05 0.0
							CHANNELS 6 Xposition Yposition Zposition Zrotation Xrotation Yrotation 
							JOINT Hand_L
							{
								OFFSET 22.2916 0.0 0.0
								CHANNELS 6 Xposition Yposition Zposition Zrotation Xrotation Yrotation 
								End Site
								{
									OFFSET 0.0 0.0 0.0
								}
							}
						}
					}
				}
				JOINT Shoulder_R
				{
					OFFSET 12.9945 -0.242716 -4.98039
					CHANNELS 6 Xposition Yposition Zposition Zrotation Xrotation Yrotation 
					JOINT UpperArm_R
					{
						OFFSET -5.34813 0.0 0.0
						CHANNELS 6 Xposition Yposition Zposition Zrotation Xrotation Yrotation 
						JOINT LowerArm_R
						{
							OFFSET -24.3289 0.000322201 0.0
							CHANNELS 6 Xposition Yposition Zposition Zrotation Xrotation Yrotation 
							JOINT Hand_R
							{
								OFFSET -22.2915 -0.000108084 0.0
								CHANNELS 6 Xposition Yposition Zposition Zrotation Xrotation Yrotation 
								End Site
								{
									OFFSET 0.0 0.0 0.0
								}
							}
						}
					}
				}
			}
		}
		JOINT UpperLeg_L
		{
			OFFSET -2.19248 -6.46944 0.0
			CHANNELS 6 Xposition Yposition Zposition Zrotation Xrotation Yrotation 
			JOINT LowerLeg_L
			{
				OFFSET 39.0811 0.0 -1.23785e-05
				CHANNELS 6 Xposition Yposition Zposition Zrotation Xrotation Yrotation 
				JOINT Foot_L
				{
					OFFSET 40.9854 0.0 -1.26872e-05
					CHANNELS 6 Xposition Yposition Zposition Zrotation Xrotation Yrotation 
					JOINT Toes_L
					{
						OFFSET 11.7543 0.0 0.0
						CHANNELS 6 Xposition Yposition Zposition Zrotation Xrotation Yrotation 
						End Site
						{
							OFFSET 0.0 0.0 0.0
						}
					}
				}
			}
		}
		JOINT UpperLeg_R
		{
			OFFSET -2.19251 6.46944 0.0
			CHANNELS 6 Xposition Yposition Zposition Zrotation Xrotation Yrotation 
			JOINT LowerLeg_R
			{
				OFFSET -39.0811 -0.00228153 -0.0401928
				CHANNELS 6 Xposition Yposition Zposition Zrotation Xrotation Yrotation 
				JOINT Foot_R
				{
					OFFSET -40.9854 0.0 0.0
					CHANNELS 6 Xposition Yposition Zposition Zrotation Xrotation Yrotation 
					JOINT Toes_R
					{
						OFFSET -11.7543 0.0 0.0
						CHANNELS 6 Xposition Yposition Zposition Zrotation Xrotation Yrotation 
						End Site
						{
							OFFSET 0.0 0.0 0.0
						}
					}
				}
			}
		}
	}
}
MOTION
Frames:	6
Frame Time:	0.0333333
0.000000 0.000000 0.000000 0.000000 0.000000 -0.000000 118.539000 88.423600 178.653000 -87.736200 41.999500 -175.844000 15.735700 0.000005 -0.000001 110.935000 83.363100 -110.063000 8.984550 -0.406207 -0.000000 4.608820 4.710320 1.553610 16.377300 -0.000001 -0.000001 -2.396200 4.591040 4.399160 6.456720 -0.000001 -0.000000 -9.300820 4.555440 12.054300 12.994200 -0.242716 4.980390 -91.146900 3.415730 -71.427500 5.348090 -0.000007 -0.000001 -63.837100 2.267020 12.027700 24.328600 0.000019 0.000005 3.272910 29.271100 -6.671530 22.291600 -0.000001 0.000005 16.844800 4.883560 9.710490 12.994500 -0.242716 -4.980390 88.637100 11.236700 -83.039000 -5.348130 -0.000001 -0.000004 -44.060900 9.425380 -22.456700 -24.328900 0.000322 -0.000009 1.518990 3.076750 -26.314800 -22.291500 -0.000108 -0.000004 19.413500 5.404250 -3.077410 -2.192480 -6.469440 -0.000000 -179.852000 -16.756800 -21.178800 39.081100 -0.000007 -0.000012 -0.202306 0.221389 42.421600 40.985400 -0.000006 -0.000013 2.837140 -4.645110 -66.601500 11.754300 -0.000000 0.000003 -0.000057 -0.000632 -16.602100 -2.192510 6.469440 -0.000001 160.927000 25.300900 -167.751000 -39.081100 -0.002282 -0.040193 0.031789 -0.040850 34.900600 -40.985400 0.000008 0.000006 -6.323800 4.715550 -62.748900 -11.754300 -0.000006 -0.000006 -0.060062 -0.331978 -30.283100
0.000000 0.000000 0.000000 0.000000 0.000000 -0.000000 119.673000 87.822100 175.423000 -88.168700 42.746800 -175.344000 15.735700 0.000005 -0.000001 111.928000 83.181600 -111.390000 8.984550 -0.406207 -0.000000 4.875900 5.069100 0.859573 16.377300 -0.000001 -0.000001 -2.077860 4.385830 3.927230 6.456720 -0.000001 -0.000000 -9.467890 4.142340 11.966200 12.994200 -0.242716 4.980390 -91.279300 3.736350 -71.084800 5.348090 -0.000007 -0.000001 -65.728900 4.411790 11.503900 24.328600 0.000019 0.000005 3.046430 32.110000 -5.717590 22.291600 -0.000001 0.000005 12.640500 4.864930 10.067300 12.994500 -0.242716 -4.980390 88.524600 11.574200 -82.684900 -5.348130 -0.000001 -0.000004 -45.518800 11.748400 -20.845800 -24.328900 0.000322 -0.000009 1.022130 1.771930 -30.021200 -22.291500 -0.000108 -0.000004 18.829300 5.428460 -3.889580 -2.192480 -6.469440 -0.000000 179.642000 -16.957900 -19.851000 39.081100 -0.000007 -0.000012 -0.284932 0.282654 45.230600 40.985400 -0.000006 -0.000013 2.632040 -5.355880 -70.583300 11.754300 -0.000000 0.000003 -0.000229 -0.002078 -16.655600 -2.192510 6.469440 -0.000001 160.076000 21.939600 -168.597000 -39.081100 -0.002282 -0.040193 0.075268 -0.090785 38.411800 -40.985400 0.000008 0.000006 -6.215030 3.167800 -60.315400 -11.754300 -0.000006 -0.000006 -0.093430 -0.427955 -34.403400
0.000000 0.000000 0.000000 0.000000 0.000000 -0.000000 120.682000 87.430200 172.249000 -88.625000 42.899700 -174.908000 15.735700 0.000005 -0.000001 111.680000 83.166000 -111.407000 8.984550 -0.406207 -0.000000 4.938440 5.032600 0.329473 16.377300 -0.000001 -0.000001 -1.580340 4.230270 3.246260 6.456720 -0.000001 -0.000000 -9.374820 3.860840 11.190100 12.994200 -0.242716 4.980390 -91.492700 4.221580 -70.506500 5.348090 -0.000007 -0.000001 -67.829600 7.111610 10.391200 24.328600 0.000019 0.000005 3.371250 33.161500 -6.146520 22.291600 -0.000001 0.000005 9.232610 4.906970 9.231710 12.994500 -0.242716 -4.980390 88.380900 11.845100 -82.159300 -5.348130 -0.000001 -0.000004 -47.104100 14.816700 -18.479900 -24.328900 0.000322 -0.000009 1.134210 1.704530 -33.658600 -22.291500 -0.000108 -0.000004 17.453300 5.451610 -4.700330 -2.192480 -6.469440 -0.000000 178.950000 -17.076000 -17.951000 39.081100 -0.000007 -0.000012 -0.345401 0.327386 46.534500 40.985400 -0.000006 -0.000013 2.697790 -5.739010 -73.770000 11.754300 -0.000000 0.000003 -0.000346 -0.002927 -16.686100 -2.192510 6.469440 -0.000001 159.165000 19.611200 -170.226000 -39.081100 -0.002282 -0.040193 0.148600 -0.157635 42.674200 -40.985400 0.000008 0.000006 -4.801200 1.778150 -55.866600 -11.754300 -0.000006 -0.000006 -0.132229 -0.518370 -38.393100
0.000000 0.000000 0.000000 0.000000 0.000000 -0.000000 121.576000 87.256200 169.309000 -88.857700 42.467500 -174.684000 15.735700 0.000005 -0.000001 110.502000 83.216200 -110.386000 8.984550 -0.406207 -0.000000 4.950960 4.739700 0.028083 16.377300 -0.000001 -0.000001 -1.087930 4.053790 2.430110 6.456720 -0.000001 -0.000000 -9.076360 3.730210 9.914870 12.994200 -0.242716 4.980390 -91.639500 4.571010 -70.244600 5.348090 -0.000007 -0.000001 -70.231900 10.098500 8.722510 24.328600 0.000019 0.000005 4.157220 31.808500 -7.852270 22.291600 -0.000001 0.000005 7.963520 4.991100 7.505010 12.994500 -0.242716 -4.980390 88.248900 11.961400 -81.608500 -5.348130 -0.000001 -0.000004 -49.256500 17.651700 -15.609500 -24.328900 0.000322 -0.000009 2.560490 3.467090 -36.485600 -22.291500 -0.000108 -0.000004 15.782900 5.466050 -5.224890 -2.192480 -6.469440 -0.000000 178.369000 -16.728600 -15.709600 39.081100 -0.000007 -0.000012 -0.376944 0.356224 46.619600 40.985400 -0.000006 -0.000013 2.884370 -5.927700 -76.125700 11.754300 -0.000000 0.000003 -0.000418 -0.003428 -16.703800 -2.192510 6.469440 -0.000001 159.053000 17.318800 -172.922000 -39.081100 -0.002282 -0.040193 0.232614 -0.208443 47.735400 -40.985400 0.000008 0.000006 -2.516810 -0.193742 -50.153800 -11.754300 -0.000006 -0.000006 -0.127622 -0.508490 -37.951100
0.000000 0.000000 0.000000 0.000000 0.000000 -0.000000 122.474000 87.187900 166.744000 -88.639400 41.617100 -174.626000 15.735700 0.000005 -0.000001 108.028000 83.169000 -107.926000 8.984550 -0.406207 -0.000000 5.232640 4.216860 0.012843 16.377300 -0.000001 -0.000001 -0.804496 3.922420 1.700160 6.456720 -0.000001 -0.000000 -8.750980 3.966930 8.071150 12.994200 -0.242716 4.980390 -91.718300 4.822340 -70.360900 5.348090 -0.000007 -0.000001 -72.493400 14.072600 6.330630 24.328600 0.000019 0.000005 5.236450 28.720300 -10.799800 22.291600 -0.000001 0.000005 7.706810 5.063790 5.932160 12.994500 -0.242716 -4.980390 88.157700 11.941700 -81.163800 -5.348130 -0.000001 -0.000004 -51.628700 20.335400 -12.899200 -24.328900 0.000322 -0.000009 4.078170 5.253360 -37.915100 -22.291500 -0.000108 -0.000004 14.592300 5.466390 -5.235680 -2.192480 -6.469440 -0.000000 178.369000 -16.524800 -13.248100 39.081100 -0.000007 -0.000012 -0.379328 0.364138 46.171300 40.985400 -0.000006 -0.000013 3.190190 -5.542850 -77.970200 11.754300 -0.000000 0.000003 -0.000462 -0.003728 -16.714300 -2.192510 6.469440 -0.000001 160.320000 14.586900 -176.409000 -39.081100 -0.002282 -0.040193 0.285979 -0.209956 53.404100 -40.985400 0.000008 0.000006 0.554309 -3.248260 -44.242100 -11.754300 -0.000006 -0.000006 -0.068212 -0.357585 -31.372600
0.000000 0.000000 0.000000 0.000000 0.000000 -0.000000 123.340000 87.175700 164.543000 -88.468500 40.290000 -174.805000 15.735700 0.000005 -0.000001 104.356000 83.170900 -104.262000 8.984550 -0.406207 -0.000000 5.470310 3.376660 0.026274 16.377300 -0.000001 -0.000001 -0.568638 3.935800 1.072860 6.456720 -0.000001 -0.000000 -8.594020 4.644350 5.913450 12.994200 -0.242716 4.980390 -91.772500 5.094220 -70.786300 5.348090 -0.000007 -0.000001 -73.744300 20.234000 3.132000 24.328600 0.000019 0.000005 6.452810 25.378900 -14.784400 22.291600 -0.000001 0.000005 8.217840 5.127810 4.474290 12.994500 -0.242716 -4.980390 88.083000 11.888600 -80.771600 -5.348130 -0.000001 -0.000004 -53.980900 23.062100 -10.594000 -24.328900 0.000322 -0.000009 4.299240 5.622110 -37.508600 -22.291500 -0.000108 -0.000004 14.064200 5.462640 -5.097200 -2.192480 -6.469440 -0.000000 178.334000 -15.739400 -11.157500 39.081100 -0.000007 -0.000012 -0.388091 0.383102 45.371500 40.985400 -0.000006 -0.000013 3.425750 -5.163430 -79.323800 11.754300 -0.000000 0.000003 -0.000481 -0.003856 -16.718700 -2.192510 6.469440 -0.000001 162.295000 12.218200 -179.969000 -39.081100 -0.002282 -0.040193 0.281145 -0.172032 58.244100 -40.985400 0.000008 0.000006 5.115970 -5.381790 -39.374200 -11.754300 -0.000006 -0.000006 -0.016757 -0.148609 -22.639300
